<svg xmlns="http://www.w3.org/2000/svg" xmlns:xlink="http://www.w3.org/1999/xlink" xmlns:lucid="lucid" width="4580" height="1600"><g transform="translate(0 -160)" lucid:page-tab-id="0_0"><path d="M0 0h5484.6v2581.67H0z" fill="#fff"/><path d="M260 360c0 11.05-8.95 20-20 20s-20-8.95-20-20 8.95-20 20-20 20 8.95 20 20z" stroke="#5e5e5e" stroke-width="3"/><path d="M141.67 1720H106c-3.3 0-6-2.7-6-6V206c0-3.3 2.7-6 6-6h35.67zM143.17 200h40.16v320h-40.16M143.17 520h40.16v300h-40.16M143.17 820h40.16v300h-40.16M143.17 1120h40.16v300h-40.16M143.17 1420h40.16v300h-40.16" stroke="#5e5e5e" stroke-width="3" fill="#fff"/><path d="M183.33 200H4534c3.3 0 6 2.7 6 6v314H183.33zM183.33 520H4540v300H183.33zM183.33 820H4540v300H183.33zM183.33 1120H4540v300H183.33zM4540 1420v294c0 3.3-2.7 6-6 6H183.33v-300z" stroke="#5e5e5e" stroke-width="3" fill="none"/><use xlink:href="#a" transform="matrix(-1.8369701987210297e-16,-1,1,-1.8369701987210297e-16,141.66666666666669,520) translate(111.94444444444444 25.444444444444443)"/><use xlink:href="#b" transform="matrix(-1.8369701987210297e-16,-1,1,-1.8369701987210297e-16,141.66666666666669,820) translate(64.29012345679013 25.444444444444443)"/><use xlink:href="#c" transform="matrix(-1.8369701987210297e-16,-1,1,-1.8369701987210297e-16,141.66666666666669,820) translate(148.179012345679 25.444444444444443)"/><use xlink:href="#d" transform="matrix(-1.8369701987210297e-16,-1,1,-1.8369701987210297e-16,141.66666666666663,1120) translate(113.61111111111111 25.444444444444443)"/><use xlink:href="#e" transform="matrix(-1.8369701987210297e-16,-1,1,-1.8369701987210297e-16,141.66666666666674,1420) translate(105.64814814814815 25.444444444444443)"/><use xlink:href="#f" transform="matrix(-1.8369701987210297e-16,-1,1,-1.8369701987210297e-16,141.66666666666674,1720) translate(55.67901234567901 25.444444444444443)"/><use xlink:href="#g" transform="matrix(-1.8369701987210297e-16,-1,1,-1.8369701987210297e-16,141.66666666666674,1720) translate(101.2962962962963 25.444444444444443)"/><use xlink:href="#c" transform="matrix(-1.8369701987210297e-16,-1,1,-1.8369701987210297e-16,141.66666666666674,1720) translate(156.79012345679013 25.444444444444443)"/><path d="M380 310c-11.05 0-20 8.95-20 20v60c0 11.05 8.95 20 20 20h120c11.05 0 20-8.95 20-20v-60c0-11.05-8.95-20-20-20z" stroke="#5e5e5e" stroke-width="3" fill="#fff"/><use xlink:href="#h" transform="matrix(1,0,0,1,368,318) translate(37.49382716049383 19.77777777777778)"/><use xlink:href="#i" transform="matrix(1,0,0,1,368,318) translate(35.58024691358025 46.44444444444444)"/><use xlink:href="#j" transform="matrix(1,0,0,1,368,318) translate(34.99382716049383 73.11111111111111)"/><path d="M262.5 360H340" stroke="#5e5e5e" stroke-width="2" fill="none"/><path d="M262.53 361h-1.14l.1-.93-.03-1.07h1.06z" fill="#5e5e5e"/><path d="M355.26 360L341 364.64v-9.28z" stroke="#5e5e5e" stroke-width="2" fill="#5e5e5e"/><path d="M376 630c-8.84 0-16 7.16-16 16v48c0 8.84 7.16 16 16 16h128c8.84 0 16-7.16 16-16v-48c0-8.84-7.16-16-16-16z" stroke="#5e5e5e" stroke-width="3" fill="#fff"/><use xlink:href="#k" transform="matrix(1,0,0,1,368,638) translate(4.7777777777777715 23.111111111111114)"/><use xlink:href="#i" transform="matrix(1,0,0,1,368,638) translate(66.38271604938271 23.111111111111114)"/><use xlink:href="#j" transform="matrix(1,0,0,1,368,638) translate(34.99382716049383 49.77777777777778)"/><path d="M440 412.5V610" stroke="#5e5e5e" stroke-width="2" fill="none"/><path d="M441 412.53h-2v-1.03h2z" fill="#5e5e5e"/><path d="M440 625.26L435.36 611h9.28z" stroke="#5e5e5e" stroke-width="2" fill="#5e5e5e"/><path d="M675.76 654.24c2.34-2.34 6.14-2.34 8.48 0l11.52 11.52c2.34 2.34 2.34 6.14 0 8.48l-11.52 11.52c-2.34 2.34-6.14 2.34-8.48 0l-11.52-11.52c-2.34-2.34-2.34-6.14 0-8.48z" stroke="#5e5e5e" stroke-width="3" fill="#fff"/><path d="M522.5 670h120" stroke="#5e5e5e" stroke-width="2" fill="none"/><path d="M522.53 671h-1.03v-2h1.03z" fill="#5e5e5e"/><path d="M657.78 670l-14.27 4.64v-9.28z" stroke="#5e5e5e" stroke-width="2" fill="#5e5e5e"/><path d="M560 706c0-3.3 2.7-6 6-6h228c3.3 0 6 2.7 6 6v48c0 3.3-2.7 6-6 6H566c-3.3 0-6-2.7-6-6z" stroke="#000" stroke-opacity="0" stroke-width="3" fill="#fff" fill-opacity="0"/><use xlink:href="#l" transform="matrix(1,0,0,1,565,705) translate(8.364197530864203 30.27777777777778)"/><use xlink:href="#m" transform="matrix(1,0,0,1,565,705) translate(31.82098765432099 30.27777777777778)"/><use xlink:href="#n" transform="matrix(1,0,0,1,565,705) translate(125.5246913580247 30.27777777777778)"/><path d="M618 290c-15.46 0-28 12.54-28 28v84c0 15.46 12.54 28 28 28h124c15.46 0 28-12.54 28-28v-84c0-15.46-12.54-28-28-28z" stroke="#5e5e5e" stroke-width="3" fill="#fff"/><use xlink:href="#o" transform="matrix(1,0,0,1,598,298) translate(22.833333333333336 26.44444444444445)"/><use xlink:href="#p" transform="matrix(1,0,0,1,598,298) translate(104.12962962962962 26.44444444444445)"/><use xlink:href="#q" transform="matrix(1,0,0,1,598,298) translate(5.487654320987659 53.11111111111112)"/><use xlink:href="#r" transform="matrix(1,0,0,1,598,298) translate(84.5 53.11111111111112)"/><use xlink:href="#s" transform="matrix(1,0,0,1,598,298) translate(8.018518518518505 79.77777777777779)"/><use xlink:href="#t" transform="matrix(1,0,0,1,598,298) translate(31.413580246913565 79.77777777777779)"/><use xlink:href="#u" transform="matrix(1,0,0,1,598,298) translate(68.4506172839506 79.77777777777779)"/><use xlink:href="#v" transform="matrix(1,0,0,1,598,298) translate(40.117283950617285 106.44444444444446)"/><path d="M681 650h-2V572.1h2zm0-99.25h-2V450h2zM681 651.15l-1.33-.18-.67.15V650h2zM684.64 449h-9.28l4.64-14.26z" fill="#5e5e5e"/><path d="M686 450h-12l6-18.5zm-9.26-2h6.52L680 437.97z" fill="#5e5e5e"/><use xlink:href="#w" transform="matrix(1,0,0,1,662.320987654321,550.7454557860691) translate(0 14.222222222222223)"/><path d="M940 360c0 11.05-8.95 20-20 20s-20-8.95-20-20 8.95-20 20-20 20 8.95 20 20z" stroke="#5e5e5e" stroke-width="3" fill="#fff"/><path d="M932 360c0 6.63-5.37 12-12 12s-12-5.37-12-12 5.37-12 12-12 12 5.37 12 12z" stroke="#5e5e5e" stroke-width="3"/><path d="M772.5 360H880" stroke="#5e5e5e" stroke-width="2" fill="none"/><path d="M772.53 361h-1.03v-2h1.03z" fill="#5e5e5e"/><path d="M895.26 360L881 364.64v-9.28z" stroke="#5e5e5e" stroke-width="2" fill="#5e5e5e"/><path d="M896 630c-8.84 0-16 7.16-16 16v48c0 8.84 7.16 16 16 16h128c8.84 0 16-7.16 16-16v-48c0-8.84-7.16-16-16-16z" stroke="#5e5e5e" stroke-width="3" fill="#fff"/><use xlink:href="#x" transform="matrix(1,0,0,1,888,638) translate(2.8950617283950635 23.111111111111114)"/><use xlink:href="#y" transform="matrix(1,0,0,1,888,638) translate(80.61111111111111 23.111111111111114)"/><use xlink:href="#z" transform="matrix(1,0,0,1,888,638) translate(99.12962962962963 23.111111111111114)"/><use xlink:href="#A" transform="matrix(1,0,0,1,888,638) translate(23.23456790123457 49.77777777777778)"/><use xlink:href="#B" transform="matrix(1,0,0,1,888,638) translate(47.925925925925924 49.77777777777778)"/><path d="M767.56 671H700v-2h67.56zm92.44 0h-50.07v-2H860zM700 671h-1.15l.18-1.33-.15-.67H700zM875.26 670L861 674.64v-9.28z" fill="#5e5e5e"/><path d="M878.5 670l-18.5 6v-12zm-16.5 3.26l10.03-3.26-10.03-3.26z" fill="#5e5e5e"/><use xlink:href="#C" transform="matrix(1,0,0,1,767.5582388588814,659.3333333333334) translate(0 14.222222222222223)"/><path d="M1195.76 654.24c2.34-2.34 6.14-2.34 8.48 0l11.52 11.52c2.34 2.34 2.34 6.14 0 8.48l-11.52 11.52c-2.34 2.34-6.14 2.34-8.48 0l-11.52-11.52c-2.34-2.34-2.34-6.14 0-8.48z" stroke="#5e5e5e" stroke-width="3" fill="#fff"/><path d="M1042.5 670h120" stroke="#5e5e5e" stroke-width="2" fill="none"/><path d="M1042.53 671h-1.03v-2h1.03z" fill="#5e5e5e"/><path d="M1177.78 670l-14.27 4.64v-9.28z" stroke="#5e5e5e" stroke-width="2" fill="#5e5e5e"/><path d="M1080 746c0-3.3 2.7-6 6-6h228c3.3 0 6 2.7 6 6v51.33c0 3.32-2.7 6-6 6h-228c-3.3 0-6-2.68-6-6z" stroke="#000" stroke-opacity="0" stroke-width="3" fill="#fff" fill-opacity="0"/><use xlink:href="#D" transform="matrix(1,0,0,1,1085,745) translate(23.08641975308643 17.77777777777778)"/><use xlink:href="#E" transform="matrix(1,0,0,1,1085,745) translate(81.0493827160494 17.77777777777778)"/><use xlink:href="#F" transform="matrix(1,0,0,1,1085,745) translate(103.20987654320989 17.77777777777778)"/><use xlink:href="#G" transform="matrix(1,0,0,1,1085,745) translate(140.24691358024694 17.77777777777778)"/><use xlink:href="#H" transform="matrix(1,0,0,1,1085,745) translate(188.39506172839506 17.77777777777778)"/><use xlink:href="#I" transform="matrix(1,0,0,1,1085,745) translate(72.4074074074074 44.44444444444444)"/><path d="M1378 630c-9.94 0-18 8.06-18 18v54c0 9.94 8.06 18 18 18h124c9.94 0 18-8.06 18-18v-54c0-9.94-8.06-18-18-18z" stroke="#5e5e5e" stroke-width="3" fill="#fff"/><use xlink:href="#J" transform="matrix(1,0,0,1,1368,638) translate(5.981481481481481 28.111111111111114)"/><use xlink:href="#r" transform="matrix(1,0,0,1,1368,638) translate(64.00617283950618 28.111111111111114)"/><use xlink:href="#K" transform="matrix(1,0,0,1,1368,638) translate(24.5 54.77777777777778)"/><use xlink:href="#L" transform="matrix(1,0,0,1,1368,638) translate(49.191358024691354 54.77777777777778)"/><path d="M1858 630c-9.94 0-18 8.06-18 18v54c0 9.94 8.06 18 18 18h124c9.94 0 18-8.06 18-18v-54c0-9.94-8.06-18-18-18z" stroke="#5e5e5e" stroke-width="3" fill="#fff"/><use xlink:href="#J" transform="matrix(1,0,0,1,1848,638) translate(5.981481481481481 17.77777777777778)"/><use xlink:href="#r" transform="matrix(1,0,0,1,1848,638) translate(64.00617283950618 17.77777777777778)"/><use xlink:href="#K" transform="matrix(1,0,0,1,1848,638) translate(2.8950617283950635 44.44444444444444)"/><use xlink:href="#M" transform="matrix(1,0,0,1,1848,638) translate(27.58641975308642 44.44444444444444)"/><use xlink:href="#N" transform="matrix(1,0,0,1,1848,638) translate(104.0679012345679 44.44444444444444)"/><use xlink:href="#O" transform="matrix(1,0,0,1,1848,638) translate(29.469135802469133 71.11111111111111)"/><path d="M2358 610c-9.94 0-18 8.06-18 18v54c0 9.94 8.06 18 18 18h204c9.94 0 18-8.06 18-18v-54c0-9.94-8.06-18-18-18z" stroke="#5e5e5e" stroke-width="3" fill="#fff"/><use xlink:href="#J" transform="matrix(1,0,0,1,2348,618) translate(34.1358024691358 17.77777777777778)"/><use xlink:href="#P" transform="matrix(1,0,0,1,2348,618) translate(92.16049382716048 17.77777777777778)"/><use xlink:href="#Q" transform="matrix(1,0,0,1,2348,618) translate(172.34567901234567 17.77777777777778)"/><use xlink:href="#R" transform="matrix(1,0,0,1,2348,618) translate(7.037037037037038 44.44444444444444)"/><use xlink:href="#S" transform="matrix(1,0,0,1,2348,618) translate(89.69135802469135 44.44444444444444)"/><use xlink:href="#N" transform="matrix(1,0,0,1,2348,618) translate(180.92592592592592 44.44444444444444)"/><use xlink:href="#T" transform="matrix(1,0,0,1,2348,618) translate(20 71.11111111111111)"/><use xlink:href="#g" transform="matrix(1,0,0,1,2348,618) translate(61.97530864197531 71.11111111111111)"/><use xlink:href="#c" transform="matrix(1,0,0,1,2348,618) translate(117.46913580246914 71.11111111111111)"/><path d="M1775.43 551h-569.3l-2.64.7-1.8 1.8-.7 2.63V650h-2v-94.13l.92-3.42 2.53-2.53 3.42-.92h569.56zm682.12-1.08l2.53 2.53.92 3.42V590h-2v-33.87l-.7-2.64-1.8-1.8-2.63-.7h-611.82v-2h612.08zM1201 651.15l-1.33-.18-.67.15V650h2zM2460 605.26l-4.64-14.26h9.28z" fill="#5e5e5e"/><path d="M2460 608.5l-6-18.5h12zm-3.26-16.5l3.26 10.03 3.26-10.03z" fill="#5e5e5e"/><use xlink:href="#U" transform="matrix(1,0,0,1,1775.434782068758,539.3333333333334) translate(0 14.222222222222223)"/><use xlink:href="#V" transform="matrix(1,0,0,1,1775.434782068758,539.3333333333334) translate(50.8641975308642 14.222222222222223)"/><path d="M1515.43 589.5h-250.3l-2.65.7-1.78 1.8-.7 2.63v69.5l-.94 3.42-2.53 2.53-3.4.92h-33.14v-2h32.85l2.65-.7 1.77-1.8.72-2.63v-69.5l.9-3.42 2.54-2.53 3.4-.92h250.6zm402.12-1.08l2.53 2.53.92 3.42V610h-2v-15.37l-.7-2.64-1.8-1.8-2.63-.7h-331.82v-2h332.08z" fill="#5e5e5e"/><path d="M1220 671h-1.15l.18-1.33-.15-.67h1.13zM1920 625.26l-4.64-14.26h9.28z" fill="#5e5e5e"/><path d="M1920 628.5l-6-18.5h12zm-3.26-16.5l3.26 10.03 3.26-10.03z" fill="#5e5e5e"/><use xlink:href="#U" transform="matrix(1,0,0,1,1515.434782068758,577.8333333333334) translate(0 14.222222222222223)"/><use xlink:href="#W" transform="matrix(1,0,0,1,1515.434782068758,577.8333333333334) translate(50.8641975308642 14.222222222222223)"/><path d="M1201 722.85l.7 2.65 1.8 1.77 2.63.72h15.75v2h-16l-3.43-.94-2.53-2.53-.92-3.4v-33.14h2zM1340 676h-15.37l-2.64.7-1.8 1.8-.7 2.63v42l-.92 3.4-2.53 2.53-3.42.93h-24.13v-2h23.87l2.64-.73 1.8-1.77.7-2.65v-41.98l.92-3.42 2.53-2.53 3.42-.92H1340z" fill="#5e5e5e"/><path d="M1200.33 689.03l.67-.15V690h-2v-1.15zM1355.26 675l-14.26 4.64v-9.28z" fill="#5e5e5e"/><path d="M1358.5 675l-18.5 6v-12zm-16.5 3.26l10.03-3.26-10.03-3.26z" fill="#5e5e5e"/><use xlink:href="#U" transform="matrix(1,0,0,1,1221.8789719694307,718.3201814214666) translate(0 14.222222222222223)"/><use xlink:href="#X" transform="matrix(1,0,0,1,1221.8789719694307,718.3201814214666) translate(50.8641975308642 14.222222222222223)"/><path d="M1376 930c-8.84 0-16 7.16-16 16v48c0 8.84 7.16 16 16 16h128c8.84 0 16-7.16 16-16v-48c0-8.84-7.16-16-16-16z" stroke="#5e5e5e" stroke-width="3" fill="#fff"/><use xlink:href="#Y" transform="matrix(1,0,0,1,1368,938) translate(32.52469135802469 23.111111111111114)"/><use xlink:href="#j" transform="matrix(1,0,0,1,1368,938) translate(34.99382716049383 49.77777777777778)"/><path d="M1440 722.5V910" stroke="#5e5e5e" stroke-width="2" fill="none"/><path d="M1441 722.53h-2v-1.03h2z" fill="#5e5e5e"/><path d="M1440 925.26l-4.64-14.26h9.28z" stroke="#5e5e5e" stroke-width="2" fill="#5e5e5e"/><path d="M1840 786c0-3.3 2.7-6 6-6h148c3.3 0 6 2.7 6 6v8c0 3.3-2.7 6-6 6h-148c-3.3 0-6-2.7-6-6zM2380 786c0-3.3 2.7-6 6-6h148c3.3 0 6 2.7 6 6v8c0 3.3-2.7 6-6 6h-148c-3.3 0-6-2.7-6-6z" stroke="#5e5e5e" stroke-width="3"/><path d="M1920 722.5V760" stroke="#5e5e5e" stroke-width="2" fill="none"/><path d="M1921 722.53h-2v-1.03h2z" fill="#5e5e5e"/><path d="M1920 775.26l-4.64-14.26h9.28z" stroke="#5e5e5e" stroke-width="2" fill="#5e5e5e"/><path d="M2460 702.5V760" stroke="#5e5e5e" stroke-width="2" fill="none"/><path d="M2461 702.53h-2v-1.03h2z" fill="#5e5e5e"/><path d="M2460 775.26l-4.64-14.26h9.28z" stroke="#5e5e5e" stroke-width="2" fill="#5e5e5e"/><path d="M1616 930c-8.84 0-16 7.16-16 16v48c0 8.84 7.16 16 16 16h128c8.84 0 16-7.16 16-16v-48c0-8.84-7.16-16-16-16z" stroke="#5e5e5e" stroke-width="3" fill="#fff"/><use xlink:href="#Z" transform="matrix(1,0,0,1,1608,938) translate(37.49382716049383 23.111111111111114)"/><use xlink:href="#aa" transform="matrix(1,0,0,1,1608,938) translate(36.25925925925926 49.77777777777778)"/><path d="M1522.5 970h57.5" stroke="#5e5e5e" stroke-width="2" fill="none"/><path d="M1522.53 971h-1.03v-2h1.03z" fill="#5e5e5e"/><path d="M1595.26 970l-14.26 4.64v-9.28z" stroke="#5e5e5e" stroke-width="2" fill="#5e5e5e"/><path d="M1856 1220c-8.84 0-16 7.16-16 16v48c0 8.84 7.16 16 16 16h128c8.84 0 16-7.16 16-16v-48c0-8.84-7.16-16-16-16z" stroke="#5e5e5e" stroke-width="3" fill="#fff"/><use xlink:href="#Y" transform="matrix(1,0,0,1,1848,1228) translate(32.52469135802469 23.111111111111114)"/><use xlink:href="#j" transform="matrix(1,0,0,1,1848,1228) translate(34.99382716049383 49.77777777777778)"/><path d="M2076 1220c-8.84 0-16 7.16-16 16v48c0 8.84 7.16 16 16 16h128c8.84 0 16-7.16 16-16v-48c0-8.84-7.16-16-16-16z" stroke="#5e5e5e" stroke-width="3" fill="#fff"/><use xlink:href="#Z" transform="matrix(1,0,0,1,2068,1228) translate(37.49382716049383 23.111111111111114)"/><use xlink:href="#aa" transform="matrix(1,0,0,1,2068,1228) translate(36.25925925925926 49.77777777777778)"/><path d="M2002.5 1260h37.5" stroke="#5e5e5e" stroke-width="2" fill="none"/><path d="M2002.53 1261h-1.03v-2h1.03z" fill="#5e5e5e"/><path d="M2055.26 1260l-14.26 4.64v-9.28z" stroke="#5e5e5e" stroke-width="2" fill="#5e5e5e"/><path d="M2396 1540c-8.84 0-16 7.16-16 16v48c0 8.84 7.16 16 16 16h128c8.84 0 16-7.16 16-16v-48c0-8.84-7.16-16-16-16z" stroke="#5e5e5e" stroke-width="3" fill="#fff"/><use xlink:href="#Y" transform="matrix(1,0,0,1,2388,1548) translate(32.52469135802469 23.111111111111114)"/><use xlink:href="#j" transform="matrix(1,0,0,1,2388,1548) translate(34.99382716049383 49.77777777777778)"/><path d="M2636 1540c-8.84 0-16 7.16-16 16v48c0 8.84 7.16 16 16 16h128c8.84 0 16-7.16 16-16v-48c0-8.84-7.16-16-16-16z" stroke="#5e5e5e" stroke-width="3" fill="#fff"/><use xlink:href="#Z" transform="matrix(1,0,0,1,2628,1548) translate(37.49382716049383 23.111111111111114)"/><use xlink:href="#aa" transform="matrix(1,0,0,1,2628,1548) translate(36.25925925925926 49.77777777777778)"/><path d="M2542.5 1580h57.5" stroke="#5e5e5e" stroke-width="2" fill="none"/><path d="M2542.53 1581h-1.03v-2h1.03z" fill="#5e5e5e"/><path d="M2615.26 1580l-14.26 4.64v-9.28z" stroke="#5e5e5e" stroke-width="2" fill="#5e5e5e"/><path d="M1856 930c-8.84 0-16 7.16-16 16v48c0 8.84 7.16 16 16 16h128c8.84 0 16-7.16 16-16v-48c0-8.84-7.16-16-16-16z" stroke="#5e5e5e" stroke-width="3" fill="#fff"/><use xlink:href="#Y" transform="matrix(1,0,0,1,1848,938) translate(32.52469135802469 23.111111111111114)"/><use xlink:href="#j" transform="matrix(1,0,0,1,1848,938) translate(34.99382716049383 49.77777777777778)"/><path d="M2076 930c-8.84 0-16 7.16-16 16v48c0 8.84 7.16 16 16 16h128c8.84 0 16-7.16 16-16v-48c0-8.84-7.16-16-16-16z" stroke="#5e5e5e" stroke-width="3" fill="#fff"/><use xlink:href="#Z" transform="matrix(1,0,0,1,2068,938) translate(37.49382716049383 23.111111111111114)"/><use xlink:href="#aa" transform="matrix(1,0,0,1,2068,938) translate(36.25925925925926 49.77777777777778)"/><path d="M2002.5 970h37.5" stroke="#5e5e5e" stroke-width="2" fill="none"/><path d="M2002.53 971h-1.03v-2h1.03z" fill="#5e5e5e"/><path d="M2055.26 970l-14.26 4.64v-9.28z" stroke="#5e5e5e" stroke-width="2" fill="#5e5e5e"/><path d="M2396 930c-8.84 0-16 7.16-16 16v48c0 8.84 7.16 16 16 16h128c8.84 0 16-7.16 16-16v-48c0-8.84-7.16-16-16-16z" stroke="#5e5e5e" stroke-width="3" fill="#fff"/><use xlink:href="#Y" transform="matrix(1,0,0,1,2388,938) translate(32.52469135802469 23.111111111111114)"/><use xlink:href="#j" transform="matrix(1,0,0,1,2388,938) translate(34.99382716049383 49.77777777777778)"/><path d="M2636 930c-8.84 0-16 7.16-16 16v48c0 8.84 7.16 16 16 16h128c8.84 0 16-7.16 16-16v-48c0-8.84-7.16-16-16-16z" stroke="#5e5e5e" stroke-width="3" fill="#fff"/><use xlink:href="#Z" transform="matrix(1,0,0,1,2628,938) translate(37.49382716049383 23.111111111111114)"/><use xlink:href="#aa" transform="matrix(1,0,0,1,2628,938) translate(36.25925925925926 49.77777777777778)"/><path d="M2542.5 970h57.5" stroke="#5e5e5e" stroke-width="2" fill="none"/><path d="M2542.53 971h-1.03v-2h1.03z" fill="#5e5e5e"/><path d="M2615.26 970l-14.26 4.64v-9.28z" stroke="#5e5e5e" stroke-width="2" fill="#5e5e5e"/><path d="M2396 1220c-8.84 0-16 7.16-16 16v48c0 8.84 7.16 16 16 16h128c8.84 0 16-7.16 16-16v-48c0-8.84-7.16-16-16-16z" stroke="#5e5e5e" stroke-width="3" fill="#fff"/><use xlink:href="#Y" transform="matrix(1,0,0,1,2388,1228) translate(32.52469135802469 23.111111111111114)"/><use xlink:href="#j" transform="matrix(1,0,0,1,2388,1228) translate(34.99382716049383 49.77777777777778)"/><path d="M2636 1220c-8.84 0-16 7.16-16 16v48c0 8.84 7.16 16 16 16h128c8.84 0 16-7.16 16-16v-48c0-8.84-7.16-16-16-16z" stroke="#5e5e5e" stroke-width="3" fill="#fff"/><use xlink:href="#Z" transform="matrix(1,0,0,1,2628,1228) translate(37.49382716049383 23.111111111111114)"/><use xlink:href="#aa" transform="matrix(1,0,0,1,2628,1228) translate(36.25925925925926 49.77777777777778)"/><path d="M2542.5 1260h57.5" stroke="#5e5e5e" stroke-width="2" fill="none"/><path d="M2542.53 1261h-1.03v-2h1.03z" fill="#5e5e5e"/><path d="M2615.26 1260l-14.26 4.64v-9.28z" stroke="#5e5e5e" stroke-width="2" fill="#5e5e5e"/><path d="M1880 801v73c0 3.3-2.7 6-6 6h-68c-3.3 0-6 2.7-6 6v368c0 3.3 2.7 6 6 6h14" stroke="#5e5e5e" stroke-width="2" fill="none"/><path fill="#5e5e5e"/><path d="M1835.26 1260l-14.26 4.64v-9.28z" stroke="#5e5e5e" stroke-width="2" fill="#5e5e5e"/><path d="M2421 844.13l-.92 3.42-2.53 2.53-3.42.92h-98l-2.64.7-1.8 1.8-.7 2.63v717.74l.7 2.64 1.8 1.8 2.63.7H2360v2h-44.13l-3.42-.92-2.53-2.53-.92-3.42V855.87l.92-3.42 2.53-2.53 3.42-.92h98l2.64-.7 1.8-1.8.7-2.63V801h2z" fill="#5e5e5e"/><path fill="#5e5e5e"/><path d="M2375.26 1580l-14.26 4.64v-9.28z" fill="#5e5e5e"/><path d="M2378.5 1580l-18.5 6v-12zm-16.5 3.26l10.03-3.26-10.03-3.26zM2351 1253.87l.7 2.64 1.8 1.8 2.63.7h3.87v2h-4.13l-3.42-.92-2.53-2.53-.92-3.42V1061.5h2zm110-369.74l-.92 3.42-2.53 2.53-3.42.92h-98l-2.64.7-1.8 1.8-.7 2.63v144.03h-2v-144.3l.92-3.4 2.53-2.54 3.42-.92h98l2.64-.7 1.8-1.8.7-2.63V802.5h2z" fill="#5e5e5e"/><path d="M2461 802.53h-2v-1.03h2zM2375.26 1260l-14.26 4.64v-9.28z" fill="#5e5e5e"/><path d="M2378.5 1260l-18.5 6v-12zm-16.5 3.26l10.03-3.26-10.03-3.26z" fill="#5e5e5e"/><use xlink:href="#ab" transform="matrix(1,0,0,1,2332.4444444444443,1040.1640396083328) translate(0 14.222222222222223)"/><path d="M2500 801v109" stroke="#5e5e5e" stroke-width="2" fill="none"/><path fill="#5e5e5e"/><path d="M2500 925.26l-4.64-14.26h9.28z" stroke="#5e5e5e" stroke-width="2" fill="#5e5e5e"/><path d="M1920 802.5V910" stroke="#5e5e5e" stroke-width="2" fill="none"/><path d="M1921 802.53h-2v-1.03h2z" fill="#5e5e5e"/><path d="M1920 925.26l-4.64-14.26h9.28z" stroke="#5e5e5e" stroke-width="2" fill="#5e5e5e"/><path d="M2916 615c-8.84 0-16 7.16-16 16v48c0 8.84 7.16 16 16 16h128c8.84 0 16-7.16 16-16v-48c0-8.84-7.16-16-16-16z" stroke="#5e5e5e" stroke-width="3" fill="#fff"/><use xlink:href="#ac" transform="matrix(1,0,0,1,2908,623) translate(27 23.111111111111114)"/><use xlink:href="#ad" transform="matrix(1,0,0,1,2908,623) translate(30.703703703703702 49.77777777777778)"/><path d="M2120 1386c0-3.3 2.7-6 6-6h148c3.3 0 6 2.7 6 6v8c0 3.3-2.7 6-6 6h-148c-3.3 0-6-2.7-6-6z" stroke="#5e5e5e" stroke-width="3"/><path d="M2140 1302.5v57.5" stroke="#5e5e5e" stroke-width="2" fill="none"/><path d="M2141 1302.53h-2v-1.03h2z" fill="#5e5e5e"/><path d="M2140 1375.26l-4.64-14.26h9.28z" stroke="#5e5e5e" stroke-width="2" fill="#5e5e5e"/><path d="M2222.5 970h11.5c3.3 0 6 2.7 6 6v385.5" stroke="#5e5e5e" stroke-width="2" fill="none"/><path d="M2222.53 971h-1.03v-2h1.03z" fill="#5e5e5e"/><path d="M2240 1376.76l-4.64-14.26h9.28z" stroke="#5e5e5e" stroke-width="2" fill="#5e5e5e"/><path d="M2880 1186c0-3.3 2.7-6 6-6h8c3.3 0 6 2.7 6 6v148c0 3.3-2.7 6-6 6h-8c-3.3 0-6-2.7-6-6z" stroke="#5e5e5e" stroke-width="3"/><path d="M2782.5 970h42.25c3.3 0 6 2.7 6 6v238c0 3.3 2.7 6 6 6h24.75" stroke="#5e5e5e" stroke-width="2" fill="none"/><path d="M2782.53 971h-1.03v-2h1.03z" fill="#5e5e5e"/><path d="M2876.76 1220l-14.26 4.64v-9.28z" stroke="#5e5e5e" stroke-width="2" fill="#5e5e5e"/><path d="M2782.5 1260h77.5" stroke="#5e5e5e" stroke-width="2" fill="none"/><path d="M2782.53 1261h-1.03v-2h1.03z" fill="#5e5e5e"/><path d="M2875.26 1260l-14.26 4.64v-9.28z" stroke="#5e5e5e" stroke-width="2" fill="#5e5e5e"/><path d="M2782.5 1580h42.25c3.3 0 6-2.7 6-6v-268c0-3.3 2.7-6 6-6h24.75" stroke="#5e5e5e" stroke-width="2" fill="none"/><path d="M2782.53 1581h-1.03v-2h1.03z" fill="#5e5e5e"/><path d="M2876.76 1300l-14.26 4.64v-9.28z" stroke="#5e5e5e" stroke-width="2" fill="#5e5e5e"/><path d="M2902.5 1260h43.16c3.3 0 6-2.7 6-6V715" stroke="#5e5e5e" stroke-width="2" fill="none"/><path d="M2902.53 1261h-1.03v-2h1.03z" fill="#5e5e5e"/><path d="M2951.66 699.74l4.63 14.26H2947z" stroke="#5e5e5e" stroke-width="2" fill="#5e5e5e"/><path d="M3017 1654.13l-.93 3.42-2.53 2.53-3.4.92h-804.27l-3.42-.92-2.53-2.53-.92-3.42V1402.5h2v251.37l.7 2.64 1.8 1.8 2.63.7h803.74l2.64-.7 1.78-1.8.72-2.63V715h2z" fill="#5e5e5e"/><path d="M2201 1402.53h-2v-1.03h2zM3020.63 714h-9.27l4.64-14.26z" fill="#5e5e5e"/><path d="M3022 715h-12l6-18.5zm-9.26-2h6.52l-3.26-10.03z" fill="#5e5e5e"/><path d="M3196 615c-8.84 0-16 7.16-16 16v48c0 8.84 7.16 16 16 16h128c8.84 0 16-7.16 16-16v-48c0-8.84-7.16-16-16-16z" stroke="#5e5e5e" stroke-width="3" fill="#fff"/><g><use xlink:href="#ae" transform="matrix(1,0,0,1,3188,623) translate(5.425925925925924 23.111111111111114)"/><use xlink:href="#af" transform="matrix(1,0,0,1,3188,623) translate(65.85802469135803 23.111111111111114)"/><use xlink:href="#ag" transform="matrix(1,0,0,1,3188,623) translate(31.32098765432098 49.77777777777778)"/></g><path d="M3062.5 655h97.5" stroke="#5e5e5e" stroke-width="2" fill="none"/><path d="M3062.53 656h-1.03v-2h1.03z" fill="#5e5e5e"/><path d="M3175.26 655l-14.26 4.64v-9.28z" stroke="#5e5e5e" stroke-width="2" fill="#5e5e5e"/><path d="M3261 1684.13l-.92 3.42-2.53 2.53-3.42.92H1685.87l-3.42-.92-2.53-2.53-.92-3.42V1012.5h2v671.37l.7 2.64 1.8 1.8 2.63.7h1567.74l2.64-.7 1.8-1.8.7-2.63V715h2z" fill="#5e5e5e"/><path d="M1681 1012.53h-2v-1.03h2zM3264.64 714h-9.28l4.64-14.26z" fill="#5e5e5e"/><path d="M3266 715h-12l6-18.5zm-9.26-2h6.52l-3.26-10.03z" fill="#5e5e5e"/><path d="M3495.76 639.24c2.34-2.34 6.14-2.34 8.48 0l11.52 11.52c2.34 2.34 2.34 6.14 0 8.48l-11.52 11.52c-2.34 2.34-6.14 2.34-8.48 0l-11.52-11.52c-2.34-2.34-2.34-6.14 0-8.48z" stroke="#5e5e5e" stroke-width="3" fill="#fff"/><path d="M3342.5 655h120" stroke="#5e5e5e" stroke-width="2" fill="none"/><path d="M3342.53 656h-1.03v-2h1.03z" fill="#5e5e5e"/><path d="M3477.78 655l-14.27 4.64v-9.28z" stroke="#5e5e5e" stroke-width="2" fill="#5e5e5e"/><path d="M3380 706c0-3.3 2.7-6 6-6h228c3.3 0 6 2.7 6 6v51.33c0 3.32-2.7 6-6 6h-228c-3.3 0-6-2.68-6-6z" stroke="#000" stroke-opacity="0" stroke-width="3" fill="#fff" fill-opacity="0"/><g><use xlink:href="#l" transform="matrix(1,0,0,1,3385,705) translate(11.327160493827165 31.27777777777778)"/><use xlink:href="#q" transform="matrix(1,0,0,1,3385,705) translate(34.78395061728395 31.27777777777778)"/><use xlink:href="#ah" transform="matrix(1,0,0,1,3385,705) translate(113.79629629629629 31.27777777777778)"/></g><path d="M3660 320c-11.05 0-20 8.95-20 20v60c0 11.05 8.95 20 20 20h120c11.05 0 20-8.95 20-20v-60c0-11.05-8.95-20-20-20z" stroke="#5e5e5e" stroke-width="3" fill="#fff"/><g><use xlink:href="#o" transform="matrix(1,0,0,1,3648,328) translate(3.574074074074076 19.77777777777778)"/><use xlink:href="#ai" transform="matrix(1,0,0,1,3648,328) translate(84.87037037037037 19.77777777777778)"/><use xlink:href="#af" transform="matrix(1,0,0,1,3648,328) translate(35.641975308641975 46.44444444444444)"/><use xlink:href="#ag" transform="matrix(1,0,0,1,3648,328) translate(31.32098765432098 73.11111111111111)"/></g><path d="M4120 1520c-11.05 0-20 8.95-20 20v60c0 11.05 8.95 20 20 20h120c11.05 0 20-8.95 20-20v-60c0-11.05-8.95-20-20-20z" stroke="#5e5e5e" stroke-width="3" fill="#fff"/><g><use xlink:href="#o" transform="matrix(1,0,0,1,4108,1528) translate(3.574074074074076 19.77777777777778)"/><use xlink:href="#ai" transform="matrix(1,0,0,1,4108,1528) translate(84.87037037037037 19.77777777777778)"/><use xlink:href="#af" transform="matrix(1,0,0,1,4108,1528) translate(35.641975308641975 46.44444444444444)"/><use xlink:href="#ag" transform="matrix(1,0,0,1,4108,1528) translate(31.32098765432098 73.11111111111111)"/></g><path d="M3501 635h-2V444.43h2zm119-264h-113.87l-2.64.7-1.8 1.8-.7 2.63v46.96h-2v-47.23l.92-3.42 2.53-2.53 3.42-.92H3620zM3501 636.15l-1.33-.18-.67.15V635h2zM3635.26 370l-14.26 4.64v-9.28z" fill="#5e5e5e"/><path d="M3638.5 370l-18.5 6v-12zm-16.5 3.26l10.03-3.26-10.03-3.26z" fill="#5e5e5e"/><g><use xlink:href="#w" transform="matrix(1,0,0,1,3482.320987654321,423.08990928926664) translate(0 14.222222222222223)"/></g><path d="M3920 370c0 11.05-8.95 20-20 20s-20-8.95-20-20 8.95-20 20-20 20 8.95 20 20z" stroke="#5e5e5e" stroke-width="3" fill="#fff"/><path d="M3912 370c0 6.63-5.37 12-12 12s-12-5.37-12-12 5.37-12 12-12 12 5.37 12 12z" stroke="#5e5e5e" stroke-width="3"/><path d="M3802.5 370h57.5" stroke="#5e5e5e" stroke-width="2" fill="none"/><path d="M3802.53 371h-1.03v-2h1.03z" fill="#5e5e5e"/><path d="M3875.26 370l-14.26 4.64v-9.28z" stroke="#5e5e5e" stroke-width="2" fill="#5e5e5e"/><path d="M3660 581c0-3.3 2.7-6 6-6h8c3.3 0 6 2.7 6 6v148c0 3.3-2.7 6-6 6h-8c-3.3 0-6-2.7-6-6z" stroke="#5e5e5e" stroke-width="3"/><path d="M3567.56 656H3520v-2h47.56zm72.44 0h-30.07v-2H3640z" fill="#5e5e5e"/><path d="M3520 656h-1.15l.18-1.33-.15-.67h1.13zM3655.26 655l-14.26 4.64v-9.28z" fill="#5e5e5e"/><path d="M3658.5 655l-18.5 6v-12zm-16.5 3.26l10.03-3.26-10.03-3.26z" fill="#5e5e5e"/><g><use xlink:href="#C" transform="matrix(1,0,0,1,3567.5582388588814,644.3333333333334) translate(0 14.222222222222223)"/></g><path d="M4100 320c-11.05 0-20 8.95-20 20v60c0 11.05 8.95 20 20 20h120c11.05 0 20-8.95 20-20v-60c0-11.05-8.95-20-20-20z" stroke="#5e5e5e" stroke-width="3" fill="#fff"/><g><use xlink:href="#o" transform="matrix(1,0,0,1,4088,328) translate(3.574074074074076 19.77777777777778)"/><use xlink:href="#ai" transform="matrix(1,0,0,1,4088,328) translate(84.87037037037037 19.77777777777778)"/><use xlink:href="#af" transform="matrix(1,0,0,1,4088,328) translate(35.641975308641975 46.44444444444444)"/><use xlink:href="#ag" transform="matrix(1,0,0,1,4088,328) translate(31.32098765432098 73.11111111111111)"/></g><path d="M4360 566c0-3.3 2.7-6 6-6h8c3.3 0 6 2.7 6 6v148c0 3.3-2.7 6-6 6h-8c-3.3 0-6-2.7-6-6z" stroke="#5e5e5e" stroke-width="3"/><path d="M4480 640c0 11.05-8.95 20-20 20s-20-8.95-20-20 8.95-20 20-20 20 8.95 20 20z" stroke="#5e5e5e" stroke-width="3" fill="#fff"/><path d="M4472 640c0 6.63-5.37 12-12 12s-12-5.37-12-12 5.37-12 12-12 12 5.37 12 12z" stroke="#5e5e5e" stroke-width="3"/><path d="M3681 615h293c3.3 0 6-2.7 6-6V376c0-3.3 2.7-6 6-6h74" stroke="#5e5e5e" stroke-width="2" fill="none"/><path fill="#5e5e5e"/><path d="M4075.26 370l-14.26 4.64v-9.28z" stroke="#5e5e5e" stroke-width="2" fill="#5e5e5e"/><path d="M4242.5 370h52.25c3.3 0 6 2.7 6 6v218c0 3.3 2.7 6 6 6h34.75" stroke="#5e5e5e" stroke-width="2" fill="none"/><path d="M4242.53 371h-1.03v-2h1.03z" fill="#5e5e5e"/><path d="M4356.76 600l-14.26 4.64v-9.28z" stroke="#5e5e5e" stroke-width="2" fill="#5e5e5e"/><path d="M3681 695h293c3.3 0 6 2.7 6 6v863c0 3.3 2.7 6 6 6h94" stroke="#5e5e5e" stroke-width="2" fill="none"/><path fill="#5e5e5e"/><path d="M4095.26 1570l-14.26 4.64v-9.28z" stroke="#5e5e5e" stroke-width="2" fill="#5e5e5e"/><path d="M4262.5 1570h42.25c3.3 0 6-2.7 6-6V686c0-3.3 2.7-6 6-6h24.75" stroke="#5e5e5e" stroke-width="2" fill="none"/><path d="M4262.53 1571h-1.03v-2h1.03z" fill="#5e5e5e"/><path d="M4356.76 680l-14.26 4.64v-9.28z" stroke="#5e5e5e" stroke-width="2" fill="#5e5e5e"/><path d="M4382.5 640h37.5" stroke="#5e5e5e" stroke-width="2" fill="none"/><path d="M4382.53 641h-1.03v-2h1.03z" fill="#5e5e5e"/><path d="M4435.26 640l-14.26 4.64v-9.28z" stroke="#5e5e5e" stroke-width="2" fill="#5e5e5e"/><defs><path fill="#333" d="M212-179c-10-28-35-45-73-45-59 0-87 40-87 99 0 60 29 101 89 101 43 0 62-24 78-52l27 14C228-24 195 4 139 4 59 4 22-46 18-125c-6-104 99-153 187-111 19 9 31 26 39 46" id="aj"/><path fill="#333" d="M84 4C-5 8 30-112 23-190h32v120c0 31 7 50 39 49 72-2 45-101 50-169h31l1 190h-30c-1-10 1-25-2-33-11 22-28 36-60 37" id="ak"/><path fill="#333" d="M135-143c-3-34-86-38-87 0 15 53 115 12 119 90S17 21 10-45l28-5c4 36 97 45 98 0-10-56-113-15-118-90-4-57 82-63 122-42 12 7 21 19 24 35" id="al"/><path fill="#333" d="M59-47c-2 24 18 29 38 22v24C64 9 27 4 27-40v-127H5v-23h24l9-43h21v43h35v23H59v120" id="am"/><path fill="#333" d="M100-194c62-1 85 37 85 99 1 63-27 99-86 99S16-35 15-95c0-66 28-99 85-99zM99-20c44 1 53-31 53-75 0-43-8-75-51-75s-53 32-53 75 10 74 51 75" id="an"/><path fill="#333" d="M210-169c-67 3-38 105-44 169h-31v-121c0-29-5-50-35-48C34-165 62-65 56 0H25l-1-190h30c1 10-1 24 2 32 10-44 99-50 107 0 11-21 27-35 58-36 85-2 47 119 55 194h-31v-121c0-29-5-49-35-48" id="ao"/><path fill="#333" d="M100-194c63 0 86 42 84 106H49c0 40 14 67 53 68 26 1 43-12 49-29l28 8c-11 28-37 45-77 45C44 4 14-33 15-96c1-61 26-98 85-98zm52 81c6-60-76-77-97-28-3 7-6 17-6 28h103" id="ap"/><path fill="#333" d="M114-163C36-179 61-72 57 0H25l-1-190h30c1 12-1 29 2 39 6-27 23-49 58-41v29" id="aq"/><g id="a"><use transform="matrix(0.06172839506172839,0,0,0.06172839506172839,0,0)" xlink:href="#aj"/><use transform="matrix(0.06172839506172839,0,0,0.06172839506172839,15.987654320987653,0)" xlink:href="#ak"/><use transform="matrix(0.06172839506172839,0,0,0.06172839506172839,28.333333333333332,0)" xlink:href="#al"/><use transform="matrix(0.06172839506172839,0,0,0.06172839506172839,39.44444444444444,0)" xlink:href="#am"/><use transform="matrix(0.06172839506172839,0,0,0.06172839506172839,45.617283950617285,0)" xlink:href="#an"/><use transform="matrix(0.06172839506172839,0,0,0.06172839506172839,57.96296296296296,0)" xlink:href="#ao"/><use transform="matrix(0.06172839506172839,0,0,0.06172839506172839,76.41975308641975,0)" xlink:href="#ap"/><use transform="matrix(0.06172839506172839,0,0,0.06172839506172839,88.76543209876543,0)" xlink:href="#aq"/></g><path fill="#333" d="M106-169C34-169 62-67 57 0H25v-261h32l-1 103c12-21 28-36 61-36 89 0 53 116 60 194h-32v-121c2-32-8-49-39-48" id="ar"/><path fill="#333" d="M141-36C126-15 110 5 73 4 37 3 15-17 15-53c-1-64 63-63 125-63 3-35-9-54-41-54-24 1-41 7-42 31l-33-3c5-37 33-52 76-52 45 0 72 20 72 64v82c-1 20 7 32 28 27v20c-31 9-61-2-59-35zM48-53c0 20 12 33 32 33 41-3 63-29 60-74-43 2-92-5-92 41" id="as"/><path fill="#333" d="M117-194c89-4 53 116 60 194h-32v-121c0-31-8-49-39-48C34-167 62-67 57 0H25l-1-190h30c1 10-1 24 2 32 11-22 29-35 61-36" id="at"/><path fill="#333" d="M177-190C167-65 218 103 67 71c-23-6-38-20-44-43l32-5c15 47 100 32 89-28v-30C133-14 115 1 83 1 29 1 15-40 15-95c0-56 16-97 71-98 29-1 48 16 59 35 1-10 0-23 2-32h30zM94-22c36 0 50-32 50-73 0-42-14-75-50-75-39 0-46 34-46 75s6 73 46 73" id="au"/><g id="b"><use transform="matrix(0.06172839506172839,0,0,0.06172839506172839,0,0)" xlink:href="#aj"/><use transform="matrix(0.06172839506172839,0,0,0.06172839506172839,15.987654320987653,0)" xlink:href="#ar"/><use transform="matrix(0.06172839506172839,0,0,0.06172839506172839,28.333333333333332,0)" xlink:href="#as"/><use transform="matrix(0.06172839506172839,0,0,0.06172839506172839,40.67901234567901,0)" xlink:href="#at"/><use transform="matrix(0.06172839506172839,0,0,0.06172839506172839,53.02469135802469,0)" xlink:href="#au"/><use transform="matrix(0.06172839506172839,0,0,0.06172839506172839,65.37037037037037,0)" xlink:href="#ap"/></g><g id="c"><use transform="matrix(0.06172839506172839,0,0,0.06172839506172839,0,0)" xlink:href="#ao"/><use transform="matrix(0.06172839506172839,0,0,0.06172839506172839,18.456790123456788,0)" xlink:href="#as"/><use transform="matrix(0.06172839506172839,0,0,0.06172839506172839,30.80246913580247,0)" xlink:href="#at"/><use transform="matrix(0.06172839506172839,0,0,0.06172839506172839,43.148148148148145,0)" xlink:href="#as"/><use transform="matrix(0.06172839506172839,0,0,0.06172839506172839,55.49382716049382,0)" xlink:href="#au"/><use transform="matrix(0.06172839506172839,0,0,0.06172839506172839,67.8395061728395,0)" xlink:href="#ap"/><use transform="matrix(0.06172839506172839,0,0,0.06172839506172839,80.18518518518519,0)" xlink:href="#aq"/></g><path fill="#333" d="M205 0l-28-72H64L36 0H1l101-248h38L239 0h-34zm-38-99l-47-123c-12 45-31 82-46 123h93" id="av"/><path fill="#333" d="M24 0v-261h32V0H24" id="aw"/><path fill="#333" d="M179-190L93 31C79 59 56 82 12 73V49c39 6 53-20 64-50L1-190h34L92-34l54-156h33" id="ax"/><g id="d"><use transform="matrix(0.06172839506172839,0,0,0.06172839506172839,0,0)" xlink:href="#av"/><use transform="matrix(0.06172839506172839,0,0,0.06172839506172839,14.814814814814813,0)" xlink:href="#at"/><use transform="matrix(0.06172839506172839,0,0,0.06172839506172839,27.160493827160494,0)" xlink:href="#as"/><use transform="matrix(0.06172839506172839,0,0,0.06172839506172839,39.50617283950617,0)" xlink:href="#aw"/><use transform="matrix(0.06172839506172839,0,0,0.06172839506172839,44.382716049382715,0)" xlink:href="#ax"/><use transform="matrix(0.06172839506172839,0,0,0.06172839506172839,55.49382716049382,0)" xlink:href="#al"/><use transform="matrix(0.06172839506172839,0,0,0.06172839506172839,66.60493827160494,0)" xlink:href="#am"/></g><path fill="#333" d="M30-248c118-7 216 8 213 122C240-48 200 0 122 0H30v-248zM63-27c89 8 146-16 146-99s-60-101-146-95v194" id="ay"/><path fill="#333" d="M24-231v-30h32v30H24zM24 0v-190h32V0H24" id="az"/><g id="e"><use transform="matrix(0.06172839506172839,0,0,0.06172839506172839,0,0)" xlink:href="#ay"/><use transform="matrix(0.06172839506172839,0,0,0.06172839506172839,15.987654320987653,0)" xlink:href="#ap"/><use transform="matrix(0.06172839506172839,0,0,0.06172839506172839,28.333333333333332,0)" xlink:href="#al"/><use transform="matrix(0.06172839506172839,0,0,0.06172839506172839,39.44444444444444,0)" xlink:href="#az"/><use transform="matrix(0.06172839506172839,0,0,0.06172839506172839,44.32098765432099,0)" xlink:href="#au"/><use transform="matrix(0.06172839506172839,0,0,0.06172839506172839,56.666666666666664,0)" xlink:href="#at"/><use transform="matrix(0.06172839506172839,0,0,0.06172839506172839,69.01234567901234,0)" xlink:href="#ap"/><use transform="matrix(0.06172839506172839,0,0,0.06172839506172839,81.35802469135803,0)" xlink:href="#aq"/></g><path fill="#333" d="M108 0H70L1-190h34L89-25l56-165h34" id="aA"/><g id="f"><use transform="matrix(0.06172839506172839,0,0,0.06172839506172839,0,0)" xlink:href="#ay"/><use transform="matrix(0.06172839506172839,0,0,0.06172839506172839,15.987654320987653,0)" xlink:href="#ap"/><use transform="matrix(0.06172839506172839,0,0,0.06172839506172839,28.333333333333332,0)" xlink:href="#aA"/></g><g id="g"><use transform="matrix(0.06172839506172839,0,0,0.06172839506172839,0,0)" xlink:href="#am"/><use transform="matrix(0.06172839506172839,0,0,0.06172839506172839,6.172839506172839,0)" xlink:href="#ap"/><use transform="matrix(0.06172839506172839,0,0,0.06172839506172839,18.51851851851852,0)" xlink:href="#as"/><use transform="matrix(0.06172839506172839,0,0,0.06172839506172839,30.864197530864196,0)" xlink:href="#ao"/></g><path fill="#333" d="M185-189c-5-48-123-54-124 2 14 75 158 14 163 119 3 78-121 87-175 55-17-10-28-26-33-46l33-7c5 56 141 63 141-1 0-78-155-14-162-118-5-82 145-84 179-34 5 7 8 16 11 25" id="aB"/><path fill="#333" d="M115-194c53 0 69 39 70 98 0 66-23 100-70 100C84 3 66-7 56-30L54 0H23l1-261h32v101c10-23 28-34 59-34zm-8 174c40 0 45-34 45-75 0-40-5-75-45-74-42 0-51 32-51 76 0 43 10 73 51 73" id="aC"/><g id="h"><use transform="matrix(0.06172839506172839,0,0,0.06172839506172839,0,0)" xlink:href="#aB"/><use transform="matrix(0.06172839506172839,0,0,0.06172839506172839,14.814814814814813,0)" xlink:href="#ak"/><use transform="matrix(0.06172839506172839,0,0,0.06172839506172839,27.160493827160494,0)" xlink:href="#ao"/><use transform="matrix(0.06172839506172839,0,0,0.06172839506172839,45.61728395061728,0)" xlink:href="#aC"/><use transform="matrix(0.06172839506172839,0,0,0.06172839506172839,57.962962962962955,0)" xlink:href="#az"/><use transform="matrix(0.06172839506172839,0,0,0.06172839506172839,62.8395061728395,0)" xlink:href="#am"/></g><path fill="#333" d="M96-169c-40 0-48 33-48 73s9 75 48 75c24 0 41-14 43-38l32 2c-6 37-31 61-74 61-59 0-76-41-82-99-10-93 101-131 147-64 4 7 5 14 7 22l-32 3c-4-21-16-35-41-35" id="aD"/><g id="i"><use transform="matrix(0.06172839506172839,0,0,0.06172839506172839,0,0)" xlink:href="#aD"/><use transform="matrix(0.06172839506172839,0,0,0.06172839506172839,11.11111111111111,0)" xlink:href="#ar"/><use transform="matrix(0.06172839506172839,0,0,0.06172839506172839,23.45679012345679,0)" xlink:href="#as"/><use transform="matrix(0.06172839506172839,0,0,0.06172839506172839,35.80246913580247,0)" xlink:href="#at"/><use transform="matrix(0.06172839506172839,0,0,0.06172839506172839,48.148148148148145,0)" xlink:href="#au"/><use transform="matrix(0.06172839506172839,0,0,0.06172839506172839,60.49382716049382,0)" xlink:href="#ap"/></g><path fill="#333" d="M145-31C134-9 116 4 85 4 32 4 16-35 15-94c0-59 17-99 70-100 32-1 48 14 60 33 0-11-1-24 2-32h30l-1 268h-32zM93-21c41 0 51-33 51-76s-8-73-50-73c-40 0-46 35-46 75s5 74 45 74" id="aE"/><g id="j"><use transform="matrix(0.06172839506172839,0,0,0.06172839506172839,0,0)" xlink:href="#aq"/><use transform="matrix(0.06172839506172839,0,0,0.06172839506172839,7.345679012345679,0)" xlink:href="#ap"/><use transform="matrix(0.06172839506172839,0,0,0.06172839506172839,19.691358024691358,0)" xlink:href="#aE"/><use transform="matrix(0.06172839506172839,0,0,0.06172839506172839,32.03703703703704,0)" xlink:href="#ak"/><use transform="matrix(0.06172839506172839,0,0,0.06172839506172839,44.382716049382715,0)" xlink:href="#ap"/><use transform="matrix(0.06172839506172839,0,0,0.06172839506172839,56.72839506172839,0)" xlink:href="#al"/><use transform="matrix(0.06172839506172839,0,0,0.06172839506172839,67.8395061728395,0)" xlink:href="#am"/></g><path fill="#333" d="M137 0h-34L2-248h35l83 218 83-218h36" id="aF"/><path fill="#333" d="M101-234c-31-9-42 10-38 44h38v23H63V0H32v-167H5v-23h27c-7-52 17-82 69-68v24" id="aG"/><g id="k"><use transform="matrix(0.06172839506172839,0,0,0.06172839506172839,0,0)" xlink:href="#aF"/><use transform="matrix(0.06172839506172839,0,0,0.06172839506172839,13.580246913580245,0)" xlink:href="#ap"/><use transform="matrix(0.06172839506172839,0,0,0.06172839506172839,25.925925925925924,0)" xlink:href="#aq"/><use transform="matrix(0.06172839506172839,0,0,0.06172839506172839,33.2716049382716,0)" xlink:href="#az"/><use transform="matrix(0.06172839506172839,0,0,0.06172839506172839,38.148148148148145,0)" xlink:href="#aG"/><use transform="matrix(0.06172839506172839,0,0,0.06172839506172839,44.32098765432099,0)" xlink:href="#ax"/></g><path fill="#333" d="M33 0v-248h34V0H33" id="aH"/><g id="l"><use transform="matrix(0.06172839506172839,0,0,0.06172839506172839,0,0)" xlink:href="#aH"/><use transform="matrix(0.06172839506172839,0,0,0.06172839506172839,6.172839506172839,0)" xlink:href="#al"/></g><path fill="#333" d="M115-194c55 1 70 41 70 98S169 2 115 4C84 4 66-9 55-30l1 105H24l-1-265h31l2 30c10-21 28-34 59-34zm-8 174c40 0 45-34 45-75s-6-73-45-74c-42 0-51 32-51 76 0 43 10 73 51 73" id="aI"/><path fill="#333" d="M85-194c31 0 48 13 60 33l-1-100h32l1 261h-30c-2-10 0-23-3-31C134-8 116 4 85 4 32 4 16-35 15-94c0-66 23-100 70-100zm9 24c-40 0-46 34-46 75 0 40 6 74 45 74 42 0 51-32 51-76 0-42-9-74-50-73" id="aJ"/><g id="m"><use transform="matrix(0.06172839506172839,0,0,0.06172839506172839,0,0)" xlink:href="#al"/><use transform="matrix(0.06172839506172839,0,0,0.06172839506172839,11.11111111111111,0)" xlink:href="#aI"/><use transform="matrix(0.06172839506172839,0,0,0.06172839506172839,23.45679012345679,0)" xlink:href="#ap"/><use transform="matrix(0.06172839506172839,0,0,0.06172839506172839,35.80246913580247,0)" xlink:href="#aD"/><use transform="matrix(0.06172839506172839,0,0,0.06172839506172839,46.91358024691358,0)" xlink:href="#az"/><use transform="matrix(0.06172839506172839,0,0,0.06172839506172839,51.79012345679013,0)" xlink:href="#aG"/><use transform="matrix(0.06172839506172839,0,0,0.06172839506172839,57.96296296296297,0)" xlink:href="#az"/><use transform="matrix(0.06172839506172839,0,0,0.06172839506172839,62.83950617283951,0)" xlink:href="#ap"/><use transform="matrix(0.06172839506172839,0,0,0.06172839506172839,75.18518518518519,0)" xlink:href="#aJ"/></g><path fill="#333" d="M103-251c84 0 111 97 45 133-19 10-37 24-39 52H78c0-63 77-55 77-114 0-30-21-42-52-43-32 0-53 17-56 46l-32-2c7-45 34-72 88-72zM77 0v-35h34V0H77" id="aK"/><g id="n"><use transform="matrix(0.06172839506172839,0,0,0.06172839506172839,0,0)" xlink:href="#aD"/><use transform="matrix(0.06172839506172839,0,0,0.06172839506172839,11.11111111111111,0)" xlink:href="#an"/><use transform="matrix(0.06172839506172839,0,0,0.06172839506172839,23.45679012345679,0)" xlink:href="#aq"/><use transform="matrix(0.06172839506172839,0,0,0.06172839506172839,30.80246913580247,0)" xlink:href="#aq"/><use transform="matrix(0.06172839506172839,0,0,0.06172839506172839,38.148148148148145,0)" xlink:href="#ap"/><use transform="matrix(0.06172839506172839,0,0,0.06172839506172839,50.49382716049382,0)" xlink:href="#aD"/><use transform="matrix(0.06172839506172839,0,0,0.06172839506172839,61.60493827160494,0)" xlink:href="#am"/><use transform="matrix(0.06172839506172839,0,0,0.06172839506172839,67.77777777777777,0)" xlink:href="#aw"/><use transform="matrix(0.06172839506172839,0,0,0.06172839506172839,72.65432098765432,0)" xlink:href="#ax"/><use transform="matrix(0.06172839506172839,0,0,0.06172839506172839,83.76543209876543,0)" xlink:href="#aK"/></g><path fill="#333" d="M190 0L58-211 59 0H30v-248h39L202-35l-2-213h31V0h-41" id="aL"/><g id="o"><use transform="matrix(0.06172839506172839,0,0,0.06172839506172839,0,0)" xlink:href="#aL"/><use transform="matrix(0.06172839506172839,0,0,0.06172839506172839,15.987654320987653,0)" xlink:href="#an"/><use transform="matrix(0.06172839506172839,0,0,0.06172839506172839,28.333333333333332,0)" xlink:href="#am"/><use transform="matrix(0.06172839506172839,0,0,0.06172839506172839,34.50617283950617,0)" xlink:href="#az"/><use transform="matrix(0.06172839506172839,0,0,0.06172839506172839,39.382716049382715,0)" xlink:href="#aG"/><use transform="matrix(0.06172839506172839,0,0,0.06172839506172839,45.55555555555556,0)" xlink:href="#az"/><use transform="matrix(0.06172839506172839,0,0,0.06172839506172839,50.4320987654321,0)" xlink:href="#ap"/><use transform="matrix(0.06172839506172839,0,0,0.06172839506172839,62.77777777777778,0)" xlink:href="#aJ"/></g><g id="p"><use transform="matrix(0.06172839506172839,0,0,0.06172839506172839,0,0)" xlink:href="#am"/><use transform="matrix(0.06172839506172839,0,0,0.06172839506172839,6.172839506172839,0)" xlink:href="#ar"/><use transform="matrix(0.06172839506172839,0,0,0.06172839506172839,18.51851851851852,0)" xlink:href="#as"/><use transform="matrix(0.06172839506172839,0,0,0.06172839506172839,30.864197530864196,0)" xlink:href="#am"/></g><g id="q"><use transform="matrix(0.06172839506172839,0,0,0.06172839506172839,0,0)" xlink:href="#aD"/><use transform="matrix(0.06172839506172839,0,0,0.06172839506172839,11.11111111111111,0)" xlink:href="#ar"/><use transform="matrix(0.06172839506172839,0,0,0.06172839506172839,23.45679012345679,0)" xlink:href="#as"/><use transform="matrix(0.06172839506172839,0,0,0.06172839506172839,35.80246913580247,0)" xlink:href="#at"/><use transform="matrix(0.06172839506172839,0,0,0.06172839506172839,48.148148148148145,0)" xlink:href="#au"/><use transform="matrix(0.06172839506172839,0,0,0.06172839506172839,60.49382716049382,0)" xlink:href="#ap"/></g><g id="r"><use transform="matrix(0.06172839506172839,0,0,0.06172839506172839,0,0)" xlink:href="#aq"/><use transform="matrix(0.06172839506172839,0,0,0.06172839506172839,7.345679012345679,0)" xlink:href="#ap"/><use transform="matrix(0.06172839506172839,0,0,0.06172839506172839,19.691358024691358,0)" xlink:href="#aE"/><use transform="matrix(0.06172839506172839,0,0,0.06172839506172839,32.03703703703704,0)" xlink:href="#ak"/><use transform="matrix(0.06172839506172839,0,0,0.06172839506172839,44.382716049382715,0)" xlink:href="#ap"/><use transform="matrix(0.06172839506172839,0,0,0.06172839506172839,56.72839506172839,0)" xlink:href="#al"/><use transform="matrix(0.06172839506172839,0,0,0.06172839506172839,67.8395061728395,0)" xlink:href="#am"/></g><g id="s"><use transform="matrix(0.06172839506172839,0,0,0.06172839506172839,0,0)" xlink:href="#az"/><use transform="matrix(0.06172839506172839,0,0,0.06172839506172839,4.876543209876543,0)" xlink:href="#at"/></g><g id="t"><use transform="matrix(0.06172839506172839,0,0,0.06172839506172839,0,0)" xlink:href="#at"/><use transform="matrix(0.06172839506172839,0,0,0.06172839506172839,12.345679012345679,0)" xlink:href="#an"/><use transform="matrix(0.06172839506172839,0,0,0.06172839506172839,24.691358024691358,0)" xlink:href="#am"/></g><g id="u"><use transform="matrix(0.06172839506172839,0,0,0.06172839506172839,0,0)" xlink:href="#al"/><use transform="matrix(0.06172839506172839,0,0,0.06172839506172839,11.11111111111111,0)" xlink:href="#aI"/><use transform="matrix(0.06172839506172839,0,0,0.06172839506172839,23.45679012345679,0)" xlink:href="#ap"/><use transform="matrix(0.06172839506172839,0,0,0.06172839506172839,35.80246913580247,0)" xlink:href="#aD"/><use transform="matrix(0.06172839506172839,0,0,0.06172839506172839,46.91358024691358,0)" xlink:href="#az"/><use transform="matrix(0.06172839506172839,0,0,0.06172839506172839,51.79012345679013,0)" xlink:href="#aG"/><use transform="matrix(0.06172839506172839,0,0,0.06172839506172839,57.96296296296297,0)" xlink:href="#az"/><use transform="matrix(0.06172839506172839,0,0,0.06172839506172839,62.83950617283951,0)" xlink:href="#ap"/><use transform="matrix(0.06172839506172839,0,0,0.06172839506172839,75.18518518518519,0)" xlink:href="#aJ"/></g><g id="v"><use transform="matrix(0.06172839506172839,0,0,0.06172839506172839,0,0)" xlink:href="#aD"/><use transform="matrix(0.06172839506172839,0,0,0.06172839506172839,11.11111111111111,0)" xlink:href="#an"/><use transform="matrix(0.06172839506172839,0,0,0.06172839506172839,23.45679012345679,0)" xlink:href="#aq"/><use transform="matrix(0.06172839506172839,0,0,0.06172839506172839,30.80246913580247,0)" xlink:href="#aq"/><use transform="matrix(0.06172839506172839,0,0,0.06172839506172839,38.148148148148145,0)" xlink:href="#ap"/><use transform="matrix(0.06172839506172839,0,0,0.06172839506172839,50.49382716049382,0)" xlink:href="#aD"/><use transform="matrix(0.06172839506172839,0,0,0.06172839506172839,61.60493827160494,0)" xlink:href="#am"/><use transform="matrix(0.06172839506172839,0,0,0.06172839506172839,67.77777777777777,0)" xlink:href="#aw"/><use transform="matrix(0.06172839506172839,0,0,0.06172839506172839,72.65432098765432,0)" xlink:href="#ax"/></g><path fill="#333" d="M20 75v-336h95v34H67V41h48v34H20" id="aM"/><path fill="#333" d="M175 0L67-191c6 58 2 128 3 191H24v-248h59L193-55c-6-58-2-129-3-193h46V0h-61" id="aN"/><path fill="#333" d="M110-194c64 0 96 36 96 99 0 64-35 99-97 99-61 0-95-36-95-99 0-62 34-99 96-99zm-1 164c35 0 45-28 45-65 0-40-10-65-43-65-34 0-45 26-45 65 0 36 10 65 43 65" id="aO"/><path fill="#333" d="M4 75V41h49v-268H4v-34h96V75H4" id="aP"/><g id="w"><use transform="matrix(0.04938271604938272,0,0,0.04938271604938272,0,0)" xlink:href="#aM"/><use transform="matrix(0.04938271604938272,0,0,0.04938271604938272,5.8765432098765435,0)" xlink:href="#aN"/><use transform="matrix(0.04938271604938272,0,0,0.04938271604938272,18.666666666666668,0)" xlink:href="#aO"/><use transform="matrix(0.04938271604938272,0,0,0.04938271604938272,29.481481481481477,0)" xlink:href="#aP"/></g><g id="x"><use transform="matrix(0.06172839506172839,0,0,0.06172839506172839,0,0)" xlink:href="#aH"/><use transform="matrix(0.06172839506172839,0,0,0.06172839506172839,6.172839506172839,0)" xlink:href="#aJ"/><use transform="matrix(0.06172839506172839,0,0,0.06172839506172839,18.51851851851852,0)" xlink:href="#ap"/><use transform="matrix(0.06172839506172839,0,0,0.06172839506172839,30.864197530864196,0)" xlink:href="#at"/><use transform="matrix(0.06172839506172839,0,0,0.06172839506172839,43.20987654320987,0)" xlink:href="#am"/><use transform="matrix(0.06172839506172839,0,0,0.06172839506172839,49.382716049382715,0)" xlink:href="#az"/><use transform="matrix(0.06172839506172839,0,0,0.06172839506172839,54.25925925925926,0)" xlink:href="#aG"/><use transform="matrix(0.06172839506172839,0,0,0.06172839506172839,60.4320987654321,0)" xlink:href="#ax"/></g><use transform="matrix(0.06172839506172839,0,0,0.06172839506172839,0,0)" xlink:href="#as" id="y"/><g id="z"><use transform="matrix(0.06172839506172839,0,0,0.06172839506172839,0,0)" xlink:href="#am"/><use transform="matrix(0.06172839506172839,0,0,0.06172839506172839,6.172839506172839,0)" xlink:href="#ax"/><use transform="matrix(0.06172839506172839,0,0,0.06172839506172839,17.28395061728395,0)" xlink:href="#aI"/><use transform="matrix(0.06172839506172839,0,0,0.06172839506172839,29.629629629629626,0)" xlink:href="#ap"/></g><g id="A"><use transform="matrix(0.06172839506172839,0,0,0.06172839506172839,0,0)" xlink:href="#an"/><use transform="matrix(0.06172839506172839,0,0,0.06172839506172839,12.345679012345679,0)" xlink:href="#aG"/></g><g id="B"><use transform="matrix(0.06172839506172839,0,0,0.06172839506172839,0,0)" xlink:href="#aD"/><use transform="matrix(0.06172839506172839,0,0,0.06172839506172839,11.11111111111111,0)" xlink:href="#ar"/><use transform="matrix(0.06172839506172839,0,0,0.06172839506172839,23.45679012345679,0)" xlink:href="#as"/><use transform="matrix(0.06172839506172839,0,0,0.06172839506172839,35.80246913580247,0)" xlink:href="#at"/><use transform="matrix(0.06172839506172839,0,0,0.06172839506172839,48.148148148148145,0)" xlink:href="#au"/><use transform="matrix(0.06172839506172839,0,0,0.06172839506172839,60.49382716049382,0)" xlink:href="#ap"/></g><path fill="#333" d="M146-102V0H94v-102L6-248h54l60 105 60-105h54" id="aQ"/><path fill="#333" d="M185-48c-13 30-37 53-82 52C43 2 14-33 14-96s30-98 90-98c62 0 83 45 84 108H66c0 31 8 55 39 56 18 0 30-7 34-22zm-45-69c5-46-57-63-70-21-2 6-4 13-4 21h74" id="aR"/><path fill="#333" d="M137-138c1-29-70-34-71-4 15 46 118 7 119 86 1 83-164 76-172 9l43-7c4 19 20 25 44 25 33 8 57-30 24-41C81-84 22-81 20-136c-2-80 154-74 161-7" id="aS"/><g id="C"><use transform="matrix(0.04938271604938272,0,0,0.04938271604938272,0,0)" xlink:href="#aM"/><use transform="matrix(0.04938271604938272,0,0,0.04938271604938272,5.8765432098765435,0)" xlink:href="#aQ"/><use transform="matrix(0.04938271604938272,0,0,0.04938271604938272,16.74074074074074,0)" xlink:href="#aR"/><use transform="matrix(0.04938271604938272,0,0,0.04938271604938272,26.617283950617285,0)" xlink:href="#aS"/><use transform="matrix(0.04938271604938272,0,0,0.04938271604938272,36.49382716049383,0)" xlink:href="#aP"/></g><path fill="#333" d="M266 0h-40l-56-210L115 0H75L2-248h35L96-30l15-64 43-154h32l59 218 59-218h35" id="aT"/><g id="D"><use transform="matrix(0.06172839506172839,0,0,0.06172839506172839,0,0)" xlink:href="#aT"/><use transform="matrix(0.06172839506172839,0,0,0.06172839506172839,20.925925925925924,0)" xlink:href="#ar"/><use transform="matrix(0.06172839506172839,0,0,0.06172839506172839,33.2716049382716,0)" xlink:href="#as"/><use transform="matrix(0.06172839506172839,0,0,0.06172839506172839,45.61728395061728,0)" xlink:href="#am"/></g><g id="E"><use transform="matrix(0.06172839506172839,0,0,0.06172839506172839,0,0)" xlink:href="#az"/><use transform="matrix(0.06172839506172839,0,0,0.06172839506172839,4.876543209876543,0)" xlink:href="#al"/></g><g id="F"><use transform="matrix(0.06172839506172839,0,0,0.06172839506172839,0,0)" xlink:href="#am"/><use transform="matrix(0.06172839506172839,0,0,0.06172839506172839,6.172839506172839,0)" xlink:href="#ar"/><use transform="matrix(0.06172839506172839,0,0,0.06172839506172839,18.51851851851852,0)" xlink:href="#ap"/></g><g id="G"><use transform="matrix(0.06172839506172839,0,0,0.06172839506172839,0,0)" xlink:href="#am"/><use transform="matrix(0.06172839506172839,0,0,0.06172839506172839,6.172839506172839,0)" xlink:href="#ax"/><use transform="matrix(0.06172839506172839,0,0,0.06172839506172839,17.28395061728395,0)" xlink:href="#aI"/><use transform="matrix(0.06172839506172839,0,0,0.06172839506172839,29.629629629629626,0)" xlink:href="#ap"/></g><g id="H"><use transform="matrix(0.06172839506172839,0,0,0.06172839506172839,0,0)" xlink:href="#an"/><use transform="matrix(0.06172839506172839,0,0,0.06172839506172839,12.345679012345679,0)" xlink:href="#aG"/></g><g id="I"><use transform="matrix(0.06172839506172839,0,0,0.06172839506172839,0,0)" xlink:href="#aD"/><use transform="matrix(0.06172839506172839,0,0,0.06172839506172839,11.11111111111111,0)" xlink:href="#ar"/><use transform="matrix(0.06172839506172839,0,0,0.06172839506172839,23.45679012345679,0)" xlink:href="#as"/><use transform="matrix(0.06172839506172839,0,0,0.06172839506172839,35.80246913580247,0)" xlink:href="#at"/><use transform="matrix(0.06172839506172839,0,0,0.06172839506172839,48.148148148148145,0)" xlink:href="#au"/><use transform="matrix(0.06172839506172839,0,0,0.06172839506172839,60.49382716049382,0)" xlink:href="#ap"/><use transform="matrix(0.06172839506172839,0,0,0.06172839506172839,72.8395061728395,0)" xlink:href="#aK"/></g><g id="J"><use transform="matrix(0.06172839506172839,0,0,0.06172839506172839,0,0)" xlink:href="#aB"/><use transform="matrix(0.06172839506172839,0,0,0.06172839506172839,14.814814814814813,0)" xlink:href="#ap"/><use transform="matrix(0.06172839506172839,0,0,0.06172839506172839,27.160493827160494,0)" xlink:href="#at"/><use transform="matrix(0.06172839506172839,0,0,0.06172839506172839,39.50617283950617,0)" xlink:href="#aJ"/></g><g id="K"><use transform="matrix(0.06172839506172839,0,0,0.06172839506172839,0,0)" xlink:href="#am"/><use transform="matrix(0.06172839506172839,0,0,0.06172839506172839,6.172839506172839,0)" xlink:href="#an"/></g><g id="L"><use transform="matrix(0.06172839506172839,0,0,0.06172839506172839,0,0)" xlink:href="#as"/><use transform="matrix(0.06172839506172839,0,0,0.06172839506172839,12.345679012345679,0)" xlink:href="#at"/><use transform="matrix(0.06172839506172839,0,0,0.06172839506172839,24.691358024691358,0)" xlink:href="#as"/><use transform="matrix(0.06172839506172839,0,0,0.06172839506172839,37.03703703703704,0)" xlink:href="#aw"/><use transform="matrix(0.06172839506172839,0,0,0.06172839506172839,41.91358024691358,0)" xlink:href="#ax"/><use transform="matrix(0.06172839506172839,0,0,0.06172839506172839,53.0246913580247,0)" xlink:href="#al"/><use transform="matrix(0.06172839506172839,0,0,0.06172839506172839,64.13580246913581,0)" xlink:href="#am"/></g><g id="M"><use transform="matrix(0.06172839506172839,0,0,0.06172839506172839,0,0)" xlink:href="#as"/><use transform="matrix(0.06172839506172839,0,0,0.06172839506172839,12.345679012345679,0)" xlink:href="#at"/><use transform="matrix(0.06172839506172839,0,0,0.06172839506172839,24.691358024691358,0)" xlink:href="#as"/><use transform="matrix(0.06172839506172839,0,0,0.06172839506172839,37.03703703703704,0)" xlink:href="#aw"/><use transform="matrix(0.06172839506172839,0,0,0.06172839506172839,41.91358024691358,0)" xlink:href="#ax"/><use transform="matrix(0.06172839506172839,0,0,0.06172839506172839,53.0246913580247,0)" xlink:href="#al"/><use transform="matrix(0.06172839506172839,0,0,0.06172839506172839,64.13580246913581,0)" xlink:href="#am"/></g><g id="N"><use transform="matrix(0.06172839506172839,0,0,0.06172839506172839,0,0)" xlink:href="#as"/><use transform="matrix(0.06172839506172839,0,0,0.06172839506172839,12.345679012345679,0)" xlink:href="#at"/><use transform="matrix(0.06172839506172839,0,0,0.06172839506172839,24.691358024691358,0)" xlink:href="#aJ"/></g><g id="O"><use transform="matrix(0.06172839506172839,0,0,0.06172839506172839,0,0)" xlink:href="#aJ"/><use transform="matrix(0.06172839506172839,0,0,0.06172839506172839,12.345679012345679,0)" xlink:href="#ap"/><use transform="matrix(0.06172839506172839,0,0,0.06172839506172839,24.691358024691358,0)" xlink:href="#al"/><use transform="matrix(0.06172839506172839,0,0,0.06172839506172839,35.80246913580247,0)" xlink:href="#az"/><use transform="matrix(0.06172839506172839,0,0,0.06172839506172839,40.67901234567901,0)" xlink:href="#au"/><use transform="matrix(0.06172839506172839,0,0,0.06172839506172839,53.02469135802469,0)" xlink:href="#at"/><use transform="matrix(0.06172839506172839,0,0,0.06172839506172839,65.37037037037037,0)" xlink:href="#ap"/><use transform="matrix(0.06172839506172839,0,0,0.06172839506172839,77.71604938271605,0)" xlink:href="#aq"/></g><g id="P"><use transform="matrix(0.06172839506172839,0,0,0.06172839506172839,0,0)" xlink:href="#aq"/><use transform="matrix(0.06172839506172839,0,0,0.06172839506172839,7.345679012345679,0)" xlink:href="#ap"/><use transform="matrix(0.06172839506172839,0,0,0.06172839506172839,19.691358024691358,0)" xlink:href="#aE"/><use transform="matrix(0.06172839506172839,0,0,0.06172839506172839,32.03703703703704,0)" xlink:href="#ak"/><use transform="matrix(0.06172839506172839,0,0,0.06172839506172839,44.382716049382715,0)" xlink:href="#ap"/><use transform="matrix(0.06172839506172839,0,0,0.06172839506172839,56.72839506172839,0)" xlink:href="#al"/><use transform="matrix(0.06172839506172839,0,0,0.06172839506172839,67.8395061728395,0)" xlink:href="#am"/></g><g id="Q"><use transform="matrix(0.06172839506172839,0,0,0.06172839506172839,0,0)" xlink:href="#am"/><use transform="matrix(0.06172839506172839,0,0,0.06172839506172839,6.172839506172839,0)" xlink:href="#an"/></g><path fill="#333" d="M68-38c1 34 0 65-14 84H32c9-13 17-26 17-46H33v-38h35" id="aU"/><g id="R"><use transform="matrix(0.06172839506172839,0,0,0.06172839506172839,0,0)" xlink:href="#as"/><use transform="matrix(0.06172839506172839,0,0,0.06172839506172839,12.345679012345679,0)" xlink:href="#at"/><use transform="matrix(0.06172839506172839,0,0,0.06172839506172839,24.691358024691358,0)" xlink:href="#as"/><use transform="matrix(0.06172839506172839,0,0,0.06172839506172839,37.03703703703704,0)" xlink:href="#aw"/><use transform="matrix(0.06172839506172839,0,0,0.06172839506172839,41.91358024691358,0)" xlink:href="#ax"/><use transform="matrix(0.06172839506172839,0,0,0.06172839506172839,53.0246913580247,0)" xlink:href="#al"/><use transform="matrix(0.06172839506172839,0,0,0.06172839506172839,64.13580246913581,0)" xlink:href="#am"/><use transform="matrix(0.06172839506172839,0,0,0.06172839506172839,70.30864197530865,0)" xlink:href="#aU"/></g><g id="S"><use transform="matrix(0.06172839506172839,0,0,0.06172839506172839,0,0)" xlink:href="#aJ"/><use transform="matrix(0.06172839506172839,0,0,0.06172839506172839,12.345679012345679,0)" xlink:href="#ap"/><use transform="matrix(0.06172839506172839,0,0,0.06172839506172839,24.691358024691358,0)" xlink:href="#al"/><use transform="matrix(0.06172839506172839,0,0,0.06172839506172839,35.80246913580247,0)" xlink:href="#az"/><use transform="matrix(0.06172839506172839,0,0,0.06172839506172839,40.67901234567901,0)" xlink:href="#au"/><use transform="matrix(0.06172839506172839,0,0,0.06172839506172839,53.02469135802469,0)" xlink:href="#at"/><use transform="matrix(0.06172839506172839,0,0,0.06172839506172839,65.37037037037037,0)" xlink:href="#ap"/><use transform="matrix(0.06172839506172839,0,0,0.06172839506172839,77.71604938271605,0)" xlink:href="#aq"/></g><g id="T"><use transform="matrix(0.06172839506172839,0,0,0.06172839506172839,0,0)" xlink:href="#aJ"/><use transform="matrix(0.06172839506172839,0,0,0.06172839506172839,12.345679012345679,0)" xlink:href="#ap"/><use transform="matrix(0.06172839506172839,0,0,0.06172839506172839,24.691358024691358,0)" xlink:href="#aA"/></g><path fill="#333" d="M136-208V0H84v-208H4v-40h212v40h-80" id="aV"/><path fill="#333" d="M123 10C108 53 80 86 19 72V37c35 8 53-11 59-39L3-190h52l48 148c12-52 28-100 44-148h51" id="aW"/><path fill="#333" d="M135-194c53 0 70 44 70 98 0 56-19 98-73 100-31 1-45-17-59-34 3 33 2 69 2 105H25l-1-265h48c2 10 0 23 3 31 11-24 29-35 60-35zM114-30c33 0 39-31 40-66 0-38-9-64-40-64-56 0-55 130 0 130" id="aX"/><g id="U"><use transform="matrix(0.04938271604938272,0,0,0.04938271604938272,0,0)" xlink:href="#aM"/><use transform="matrix(0.04938271604938272,0,0,0.04938271604938272,5.8765432098765435,0)" xlink:href="#aV"/><use transform="matrix(0.04938271604938272,0,0,0.04938271604938272,15.358024691358025,0)" xlink:href="#aW"/><use transform="matrix(0.04938271604938272,0,0,0.04938271604938272,25.23456790123457,0)" xlink:href="#aX"/><use transform="matrix(0.04938271604938272,0,0,0.04938271604938272,36.04938271604939,0)" xlink:href="#aR"/></g><path fill="#333" d="M128-127c34 4 56 21 59 58 7 91-148 94-172 28-4-9-6-17-7-26l51-5c1 24 16 35 40 36 23 0 39-12 38-36-1-31-31-36-65-34v-40c32 2 59-3 59-33 0-20-13-33-34-33s-33 13-35 32l-50-3c6-44 37-68 86-68 50 0 83 20 83 66 0 35-22 52-53 58" id="aY"/><g id="V"><use transform="matrix(0.04938271604938272,0,0,0.04938271604938272,0,0)" xlink:href="#aY"/><use transform="matrix(0.04938271604938272,0,0,0.04938271604938272,9.876543209876544,0)" xlink:href="#aP"/></g><path fill="#333" d="M182-182c0 78-84 86-111 141h115V0H12c-6-101 99-100 120-180 1-22-12-31-33-32-23 0-32 14-35 34l-49-3c5-45 32-70 84-70 51 0 83 22 83 69" id="aZ"/><g id="W"><use transform="matrix(0.04938271604938272,0,0,0.04938271604938272,0,0)" xlink:href="#aZ"/><use transform="matrix(0.04938271604938272,0,0,0.04938271604938272,9.876543209876544,0)" xlink:href="#aP"/></g><path fill="#333" d="M23 0v-37h61v-169l-59 37v-38l62-41h46v211h57V0H23" id="ba"/><g id="X"><use transform="matrix(0.04938271604938272,0,0,0.04938271604938272,0,0)" xlink:href="#ba"/><use transform="matrix(0.04938271604938272,0,0,0.04938271604938272,9.876543209876544,0)" xlink:href="#aP"/></g><g id="Y"><use transform="matrix(0.06172839506172839,0,0,0.06172839506172839,0,0)" xlink:href="#av"/><use transform="matrix(0.06172839506172839,0,0,0.06172839506172839,14.814814814814813,0)" xlink:href="#at"/><use transform="matrix(0.06172839506172839,0,0,0.06172839506172839,27.160493827160494,0)" xlink:href="#as"/><use transform="matrix(0.06172839506172839,0,0,0.06172839506172839,39.50617283950617,0)" xlink:href="#aw"/><use transform="matrix(0.06172839506172839,0,0,0.06172839506172839,44.382716049382715,0)" xlink:href="#ax"/><use transform="matrix(0.06172839506172839,0,0,0.06172839506172839,55.49382716049382,0)" xlink:href="#al"/><use transform="matrix(0.06172839506172839,0,0,0.06172839506172839,66.60493827160494,0)" xlink:href="#ap"/></g><g id="Z"><use transform="matrix(0.06172839506172839,0,0,0.06172839506172839,0,0)" xlink:href="#aB"/><use transform="matrix(0.06172839506172839,0,0,0.06172839506172839,14.814814814814813,0)" xlink:href="#ak"/><use transform="matrix(0.06172839506172839,0,0,0.06172839506172839,27.160493827160494,0)" xlink:href="#aC"/><use transform="matrix(0.06172839506172839,0,0,0.06172839506172839,39.50617283950617,0)" xlink:href="#ao"/><use transform="matrix(0.06172839506172839,0,0,0.06172839506172839,57.96296296296296,0)" xlink:href="#az"/><use transform="matrix(0.06172839506172839,0,0,0.06172839506172839,62.839506172839506,0)" xlink:href="#am"/></g><g id="aa"><use transform="matrix(0.06172839506172839,0,0,0.06172839506172839,0,0)" xlink:href="#an"/><use transform="matrix(0.06172839506172839,0,0,0.06172839506172839,12.345679012345679,0)" xlink:href="#aI"/><use transform="matrix(0.06172839506172839,0,0,0.06172839506172839,24.691358024691358,0)" xlink:href="#az"/><use transform="matrix(0.06172839506172839,0,0,0.06172839506172839,29.5679012345679,0)" xlink:href="#at"/><use transform="matrix(0.06172839506172839,0,0,0.06172839506172839,41.913580246913575,0)" xlink:href="#az"/><use transform="matrix(0.06172839506172839,0,0,0.06172839506172839,46.79012345679012,0)" xlink:href="#an"/><use transform="matrix(0.06172839506172839,0,0,0.06172839506172839,59.1358024691358,0)" xlink:href="#at"/></g><path fill="#333" d="M144 0l-44-69L55 0H2l70-98-66-92h53l41 62 40-62h54l-67 91 71 99h-54" id="bb"/><path fill="#333" d="M115-3C79 11 28 4 28-45v-112H4v-33h27l15-45h31v45h36v33H77v99c-1 23 16 31 38 25v30" id="bc"/><g id="ab"><use transform="matrix(0.04938271604938272,0,0,0.04938271604938272,0,0)" xlink:href="#aV"/><use transform="matrix(0.04938271604938272,0,0,0.04938271604938272,9.481481481481481,0)" xlink:href="#aR"/><use transform="matrix(0.04938271604938272,0,0,0.04938271604938272,19.358024691358025,0)" xlink:href="#bb"/><use transform="matrix(0.04938271604938272,0,0,0.04938271604938272,29.23456790123457,0)" xlink:href="#bc"/></g><g id="ac"><use transform="matrix(0.06172839506172839,0,0,0.06172839506172839,0,0)" xlink:href="#aj"/><use transform="matrix(0.06172839506172839,0,0,0.06172839506172839,15.987654320987653,0)" xlink:href="#an"/><use transform="matrix(0.06172839506172839,0,0,0.06172839506172839,28.333333333333332,0)" xlink:href="#ao"/><use transform="matrix(0.06172839506172839,0,0,0.06172839506172839,46.79012345679012,0)" xlink:href="#aI"/><use transform="matrix(0.06172839506172839,0,0,0.06172839506172839,59.1358024691358,0)" xlink:href="#as"/><use transform="matrix(0.06172839506172839,0,0,0.06172839506172839,71.48148148148148,0)" xlink:href="#am"/><use transform="matrix(0.06172839506172839,0,0,0.06172839506172839,77.65432098765432,0)" xlink:href="#ap"/></g><g id="ad"><use transform="matrix(0.06172839506172839,0,0,0.06172839506172839,0,0)" xlink:href="#an"/><use transform="matrix(0.06172839506172839,0,0,0.06172839506172839,12.345679012345679,0)" xlink:href="#aI"/><use transform="matrix(0.06172839506172839,0,0,0.06172839506172839,24.691358024691358,0)" xlink:href="#az"/><use transform="matrix(0.06172839506172839,0,0,0.06172839506172839,29.5679012345679,0)" xlink:href="#at"/><use transform="matrix(0.06172839506172839,0,0,0.06172839506172839,41.913580246913575,0)" xlink:href="#az"/><use transform="matrix(0.06172839506172839,0,0,0.06172839506172839,46.79012345679012,0)" xlink:href="#an"/><use transform="matrix(0.06172839506172839,0,0,0.06172839506172839,59.1358024691358,0)" xlink:href="#at"/><use transform="matrix(0.06172839506172839,0,0,0.06172839506172839,71.48148148148148,0)" xlink:href="#al"/></g><path fill="#333" d="M240 0l2-218c-23 76-54 145-80 218h-23L58-218 59 0H30v-248h44l77 211c21-75 51-140 76-211h43V0h-30" id="bd"/><path fill="#333" d="M143 0L79-87 56-68V0H24v-261h32v163l83-92h37l-77 82L181 0h-38" id="be"/><g id="ae"><use transform="matrix(0.06172839506172839,0,0,0.06172839506172839,0,0)" xlink:href="#bd"/><use transform="matrix(0.06172839506172839,0,0,0.06172839506172839,18.456790123456788,0)" xlink:href="#as"/><use transform="matrix(0.06172839506172839,0,0,0.06172839506172839,30.80246913580247,0)" xlink:href="#be"/><use transform="matrix(0.06172839506172839,0,0,0.06172839506172839,41.91358024691358,0)" xlink:href="#ap"/></g><g id="af"><use transform="matrix(0.06172839506172839,0,0,0.06172839506172839,0,0)" xlink:href="#as"/><use transform="matrix(0.06172839506172839,0,0,0.06172839506172839,12.345679012345679,0)" xlink:href="#aI"/><use transform="matrix(0.06172839506172839,0,0,0.06172839506172839,24.691358024691358,0)" xlink:href="#aq"/><use transform="matrix(0.06172839506172839,0,0,0.06172839506172839,32.03703703703704,0)" xlink:href="#an"/><use transform="matrix(0.06172839506172839,0,0,0.06172839506172839,44.382716049382715,0)" xlink:href="#aA"/><use transform="matrix(0.06172839506172839,0,0,0.06172839506172839,55.49382716049382,0)" xlink:href="#as"/><use transform="matrix(0.06172839506172839,0,0,0.06172839506172839,67.8395061728395,0)" xlink:href="#aw"/></g><g id="ag"><use transform="matrix(0.06172839506172839,0,0,0.06172839506172839,0,0)" xlink:href="#aJ"/><use transform="matrix(0.06172839506172839,0,0,0.06172839506172839,12.345679012345679,0)" xlink:href="#ap"/><use transform="matrix(0.06172839506172839,0,0,0.06172839506172839,24.691358024691358,0)" xlink:href="#aD"/><use transform="matrix(0.06172839506172839,0,0,0.06172839506172839,35.80246913580247,0)" xlink:href="#az"/><use transform="matrix(0.06172839506172839,0,0,0.06172839506172839,40.67901234567901,0)" xlink:href="#al"/><use transform="matrix(0.06172839506172839,0,0,0.06172839506172839,51.79012345679013,0)" xlink:href="#az"/><use transform="matrix(0.06172839506172839,0,0,0.06172839506172839,56.66666666666667,0)" xlink:href="#an"/><use transform="matrix(0.06172839506172839,0,0,0.06172839506172839,69.01234567901236,0)" xlink:href="#at"/></g><g id="ah"><use transform="matrix(0.06172839506172839,0,0,0.06172839506172839,0,0)" xlink:href="#as"/><use transform="matrix(0.06172839506172839,0,0,0.06172839506172839,12.345679012345679,0)" xlink:href="#aI"/><use transform="matrix(0.06172839506172839,0,0,0.06172839506172839,24.691358024691358,0)" xlink:href="#aI"/><use transform="matrix(0.06172839506172839,0,0,0.06172839506172839,37.03703703703704,0)" xlink:href="#aq"/><use transform="matrix(0.06172839506172839,0,0,0.06172839506172839,44.382716049382715,0)" xlink:href="#an"/><use transform="matrix(0.06172839506172839,0,0,0.06172839506172839,56.72839506172839,0)" xlink:href="#aA"/><use transform="matrix(0.06172839506172839,0,0,0.06172839506172839,67.8395061728395,0)" xlink:href="#ap"/><use transform="matrix(0.06172839506172839,0,0,0.06172839506172839,80.18518518518519,0)" xlink:href="#aJ"/><use transform="matrix(0.06172839506172839,0,0,0.06172839506172839,92.53086419753087,0)" xlink:href="#aK"/></g><g id="ai"><use transform="matrix(0.06172839506172839,0,0,0.06172839506172839,0,0)" xlink:href="#as"/><use transform="matrix(0.06172839506172839,0,0,0.06172839506172839,12.345679012345679,0)" xlink:href="#aC"/><use transform="matrix(0.06172839506172839,0,0,0.06172839506172839,24.691358024691358,0)" xlink:href="#an"/><use transform="matrix(0.06172839506172839,0,0,0.06172839506172839,37.03703703703704,0)" xlink:href="#ak"/><use transform="matrix(0.06172839506172839,0,0,0.06172839506172839,49.382716049382715,0)" xlink:href="#am"/></g></defs></g></svg>